<?xml version="1.0" encoding="utf-8"?>
<!-- Generator: Adobe Illustrator 24.1.0, SVG Export Plug-In . SVG Version: 6.00 Build 0)  -->
<svg version="1.1" id="Capa_1" xmlns="http://www.w3.org/2000/svg" xmlns:xlink="http://www.w3.org/1999/xlink" x="0px" y="0px"
	 viewBox="0 0 512 512" style="enable-background:new 0 0 512 512;" xml:space="preserve">
<style type="text/css">
	.st0{fill:#FFB41D;}
</style>
<g>
	<g>
		<path class="st0" d="M70,60c-5.5,0-10,4.5-10,10s4.5,10,10,10s10-4.5,10-10S75.5,60,70,60z"/>
	</g>
</g>
<g>
	<g>
		<path class="st0" d="M70,120c-5.5,0-10,4.5-10,10c0,5.5,4.5,10,10,10s10-4.5,10-10S75.5,120,70,120z"/>
	</g>
</g>
<g>
	<g>
		<path class="st0" d="M383.2,97.1L294.9,8.8C289.4,3.3,281.7,0,273.7,0H30C13.5,0,0,13.5,0,30v452c0,16.5,13.5,30,30,30h332
			c16.5,0,30-13.5,30-30V118.3C392,110.3,388.8,102.7,383.2,97.1z M292,34.1l65.9,65.9H292V34.1z M372,482c0,5.5-4.5,10-10,10H30
			c-5.5,0-10-4.5-10-10V30c0-5.5,4.5-10,10-10h242v90c0,5.5,4.5,10,10,10h90V482z"/>
	</g>
</g>
<g>
	<g>
		<path class="st0" d="M502,53.6V30c0-16.5-13.5-30-30-30s-30,13.5-30,30v23.6c-6.4,7.3-10,16.6-10,26.4v322c0,27.9,9.2,55.6,26,78
			l4,5.3V502c0,5.5,4.5,10,10,10s10-4.5,10-10v-16.7l4-5.3c16.8-22.4,26-50.1,26-78V80C512,70.2,508.5,60.9,502,53.6z M462,30
			c0-5.5,4.5-10,10-10s10,4.5,10,10v11.3c-3.2-0.8-6.6-1.3-10-1.3s-6.8,0.4-10,1.3V30z M472,465.2c-11-15.7-17.8-34.2-19.5-53.2
			h39.1C489.8,431.1,483,449.6,472,465.2z M492,392h-40V186h40V392z M492,166h-40V80c0-11,8.9-20,20-20c10.8,0,20,8.7,20,20V166z"/>
	</g>
</g>
<g>
	<g>
		<path class="st0" d="M296,312c-16.5,0-30,13.5-30,30c0,4.6,1,8.9,2.9,12.9l-40,40c-4-1.9-8.4-2.9-12.9-2.9s-8.9,1-12.9,2.9l-20-20
			c1.9-4,2.9-8.4,2.9-12.9c0-16.5-13.5-30-30-30s-30,13.5-30,30c0,4.6,1,8.9,2.9,12.9l-20,20c-4-1.9-8.4-2.9-12.9-2.9
			c-16.5,0-30,13.5-30,30s13.5,30,30,30s30-13.5,30-30c0-4.6-1-8.9-2.9-12.9l20-20c4,1.9,8.4,2.9,12.9,2.9s8.9-1,12.9-2.9l20,20
			c-1.9,4-2.9,8.4-2.9,12.9c0,16.5,13.5,30,30,30s30-13.5,30-30c0-4.6-1-8.9-2.9-12.9l40-40c4,1.9,8.4,2.9,12.9,2.9
			c16.5,0,30-13.5,30-30S312.5,312,296,312z M96,432c-5.5,0-10-4.5-10-10s4.5-10,10-10c5.5,0,10,4.5,10,10
			C106,427.5,101.5,432,96,432z M156,372c-5.5,0-10-4.5-10-10c0-5.5,4.5-10,10-10s10,4.5,10,10C166,367.5,161.5,372,156,372z
			 M216,432c-5.5,0-10-4.5-10-10c0-5.5,4.5-10,10-10s10,4.5,10,10C226,427.5,221.5,432,216,432z M296,352c-2.2,0-4.3-0.7-6.1-2.1
			c-0.6-0.8-1.1-1.3-1.9-1.9c-1.3-1.7-2.1-3.8-2.1-6.1c0-5.5,4.5-10,10-10s10,4.5,10,10S301.5,352,296,352z"/>
	</g>
</g>
<g>
	<g>
		<path class="st0" d="M216,60H110c-5.5,0-10,4.5-10,10s4.5,10,10,10h106c5.5,0,10-4.5,10-10S221.5,60,216,60z"/>
	</g>
</g>
<g>
	<g>
		<path class="st0" d="M216,120H110c-5.5,0-10,4.5-10,10c0,5.5,4.5,10,10,10h106c5.5,0,10-4.5,10-10S221.5,120,216,120z"/>
	</g>
</g>
<g>
	<g>
		<path class="st0" d="M322,186H70c-5.5,0-10,4.5-10,10s4.5,10,10,10h252c5.5,0,10-4.5,10-10S327.5,186,322,186z"/>
	</g>
</g>
<g>
	<g>
		<path class="st0" d="M322,246H70c-5.5,0-10,4.5-10,10c0,5.5,4.5,10,10,10h252c5.5,0,10-4.5,10-10S327.5,246,322,246z"/>
	</g>
</g>
</svg>
