<?xml version="1.0" encoding="utf-8"?>
<!-- Generator: Adobe Illustrator 22.0.1, SVG Export Plug-In . SVG Version: 6.00 Build 0)  -->
<svg version="1.1" id="Layer_1" xmlns="http://www.w3.org/2000/svg" xmlns:xlink="http://www.w3.org/1999/xlink" x="0px" y="0px"
	 viewBox="0 0 512 512" style="enable-background:new 0 0 512 512;" xml:space="preserve">
<style type="text/css">
	.st0{fill:#C4C4C4;}
</style>
<g>
	<g>
		<path class="st0" d="M404.5,119.7h-297c-18.5,0-33.5,15-33.5,33.5s15,33.5,33.5,33.5h297c18.5,0,33.5-15,33.5-33.5
			S423,119.7,404.5,119.7z"/>
	</g>
	<g>
		<path class="st0" d="M404.5,222.5h-297C89,222.5,74,237.5,74,256s15,33.5,33.5,33.5h297c18.5,0,33.5-15,33.5-33.5
			S423,222.5,404.5,222.5L404.5,222.5z"/>
	</g>
	<g>
		<path class="st0" d="M404.5,325.3h-297c-18.5,0-33.5,15-33.5,33.5s15,33.5,33.5,33.5h297c18.5,0,33.5-15,33.5-33.5
			S423,325.3,404.5,325.3z"/>
	</g>
</g>
</svg>
